<svg width="45" height="45" viewBox="0 0 45 45" fill="none" xmlns="http://www.w3.org/2000/svg">
<path d="M26.4771 1.2753C16.6337 3.23227 8.85498 12.2106 8.85498 22.5C8.85498 32.7894 16.6337 41.7677 26.4771 43.7247C36.3204 41.7677 44.0991 32.7894 44.0991 22.5C44.0991 12.2106 36.3204 3.23227 26.4771 1.2753Z" fill="#2D9CDB"/>
<path d="M21.7749 21.9727V14.9414H25.9937V11.9531H18.9624V18.9844H11.9312V26.0156H14.7437V21.9727H21.7749Z" fill="white"/>
<path d="M28.8062 18.9844H25.9937V14.9414H21.7749V21.9727H14.7437V26.0156H18.9624V29.0039V33.0469H21.7749H25.9937V26.0156H33.0249V21.9727V18.9844H28.8062Z" fill="#E3F2FF"/>
<path d="M11.6895 9.05273C12.1746 9.05273 12.5684 8.65898 12.5684 8.17383C12.5684 7.68867 12.1746 7.29492 11.6895 7.29492C11.2043 7.29492 10.8105 7.68867 10.8105 8.17383C10.8105 8.65898 11.2043 9.05273 11.6895 9.05273Z" fill="black"/>
<path d="M22.5 0C10.3729 0 0 10.3536 0 22.5C0 34.6299 10.3548 45 22.5 45C34.6271 45 45 34.6464 45 22.5C45 10.3701 34.6452 0 22.5 0ZM22.5 43.2422C11.2566 43.2422 1.75781 33.7434 1.75781 22.5C1.75781 11.2566 11.2566 1.75781 22.5 1.75781C33.7434 1.75781 43.2422 11.2566 43.2422 22.5C43.2422 33.7434 33.7434 43.2422 22.5 43.2422Z" fill="black"/>
<path d="M22.5 3.7793C19.6818 3.7793 16.7005 4.42969 14.3207 5.56374C13.8826 5.77257 13.6965 6.2971 13.9054 6.73523C14.1141 7.17337 14.6384 7.35961 15.0768 7.15061C17.2287 6.12519 19.9344 5.53711 22.5 5.53711C31.6949 5.53711 39.4629 13.3051 39.4629 22.5C39.4629 31.6949 31.6949 39.4629 22.5 39.4629C13.3051 39.4629 5.53711 31.6949 5.53711 22.5C5.53711 18.3001 7.07792 14.1605 9.76456 11.1427C10.0874 10.7801 10.0551 10.2246 9.69258 9.90185C9.32994 9.57894 8.77456 9.61154 8.45174 9.97383C5.48227 13.3093 3.7793 17.8748 3.7793 22.5C3.7793 32.6714 12.3137 41.2207 22.5 41.2207C32.6714 41.2207 41.2207 32.6863 41.2207 22.5C41.2207 12.3286 32.6863 3.7793 22.5 3.7793Z" fill="black"/>
<path d="M26.0156 11.0742H18.9844C18.499 11.0742 18.1055 11.4678 18.1055 11.9531V18.1055H11.9531C11.4678 18.1055 11.0742 18.499 11.0742 18.9844V26.0156C11.0742 26.501 11.4678 26.8945 11.9531 26.8945H18.1055V33.0469C18.1055 33.5322 18.499 33.9258 18.9844 33.9258H26.0156C26.501 33.9258 26.8945 33.5322 26.8945 33.0469V26.8945H33.0469C33.5322 26.8945 33.9258 26.501 33.9258 26.0156V18.9844C33.9258 18.499 33.5322 18.1055 33.0469 18.1055H26.8945V11.9531C26.8945 11.4678 26.501 11.0742 26.0156 11.0742ZM32.168 19.8633V25.1367H26.0156C25.5303 25.1367 25.1367 25.5303 25.1367 26.0156V32.168H19.8633V26.0156C19.8633 25.5303 19.4697 25.1367 18.9844 25.1367H12.832V19.8633H18.9844C19.4697 19.8633 19.8633 19.4697 19.8633 18.9844V12.832H25.1367V18.9844C25.1367 19.4697 25.5303 19.8633 26.0156 19.8633H32.168Z" fill="black"/>
</svg>
